<svg
  class="blogPostIcon"
  width="24"
  height="24"
  viewBox="0 0 24 24"
  fill="none"
  xmlns="http://www.w3.org/2000/svg"
>
  <path
    fill-rule="evenodd"
    clip-rule="evenodd"
    d="M12.828 7.45296V3.88552C12.5559 3.85513 12.28 3.83811 11.9999 3.83811C11.7196 3.83811 11.4436 3.85513 11.1713 3.88552V7.45296H2.71211C4.39801 4.02325 7.92712 1.65625 11.9999 1.65625C16.0726 1.65625 19.6017 4.02325 21.2876 7.45296H12.828ZM22.3433 11.9999C22.3433 15.5132 20.581 18.6209 17.8959 20.4911C14.8637 17.4626 13.0567 13.3848 12.8491 9.10986H21.9294C22.197 10.0277 22.3433 10.9967 22.3433 11.9999ZM12 22.3437C10.4199 22.3437 8.92228 21.9863 7.58149 21.3502C9.63334 19.2028 11.1404 16.6058 12 13.7959C12.8597 16.6058 14.3669 19.2028 16.4186 21.3502C15.0778 21.9863 13.5802 22.3437 12 22.3437ZM1.6567 11.9999C1.6567 10.9967 1.80302 10.0277 2.07062 9.10986H11.1508C10.9433 13.3849 9.13629 17.4626 6.1041 20.4911C3.41886 18.6209 1.6567 15.5132 1.6567 11.9999ZM12 0C5.38309 0 -4.95911e-05 5.3831 -4.95911e-05 12C-4.95911e-05 18.6169 5.38309 24 12 24C18.6168 24 24 18.6169 24 12C24 5.3831 18.6168 0 12 0Z"
    fill="#000"
  />
</svg>
