<svg width="34" height="34" viewBox="0 0 34 34" fill="none" xmlns="http://www.w3.org/2000/svg">
<path fill-rule="evenodd" clip-rule="evenodd" d="M18.1735 10.5587V5.50481C17.788 5.46176 17.3972 5.43764 17.0004 5.43764C16.6033 5.43764 16.2123 5.46176 15.8266 5.50481V10.5587H3.84271C6.23108 5.69992 11.2306 2.34668 17.0004 2.34668C22.7701 2.34668 27.7696 5.69992 30.158 10.5587H18.1735ZM31.653 16.9995C31.653 21.9767 29.1564 26.3792 25.3526 29.0287C21.057 24.7384 18.497 18.9614 18.203 12.9053H31.0667C31.4457 14.2055 31.653 15.5783 31.653 16.9995ZM16.9998 31.6523C14.7613 31.6523 12.6396 31.1461 10.7402 30.2448C13.647 27.2027 15.782 23.5236 16.9998 19.543C18.2176 23.5236 20.3528 27.2027 23.2594 30.2448C21.36 31.1461 19.2383 31.6523 16.9998 31.6523ZM2.34662 17.0005C2.34662 15.5793 2.5539 14.2065 2.933 12.9062H15.7967C15.5027 18.9626 12.9427 24.7394 8.6471 29.0297C4.84301 26.3802 2.34662 21.9776 2.34662 17.0005ZM16.9999 0C7.62605 0 -6.10352e-05 7.62606 -6.10352e-05 17C-6.10352e-05 26.3739 7.62605 34 16.9999 34C26.3738 34 33.9999 26.3739 33.9999 17C33.9999 7.62606 26.3738 0 16.9999 0Z" fill="#2F3033"/>
</svg>
