<?xml version="1.0" encoding="UTF-8"?>
<svg width="40px" height="40px" viewBox="0 0 40 40" version="1.1" xmlns="http://www.w3.org/2000/svg" xmlns:xlink="http://www.w3.org/1999/xlink">
  <title>Editorial / Icons / Thoughtpiece</title>
  <g id="Editorial-/-Icons-/-Thoughtpiece" stroke="none" stroke-width="1" fill="none" fill-rule="evenodd">
    <path id="Logo" fill="#333333"
      d="M20.8281102,15.353258 L20.8281102,11.7858121 C20.5560128,11.7554245 20.2801168,11.7384018 20,11.7384018 C19.7197425,11.7384018 19.4437058,11.7554245 19.1714678,11.7858121 L19.1714678,15.353258 L10.7122507,15.353258 C12.3981569,11.923541 15.9272625,9.55654529 20,9.55654529 C24.0727375,9.55654529 27.6018431,11.923541 29.2877493,15.353258 L20.8281102,15.353258 Z M30.3433576,19.9 C30.3433576,23.4132828 28.5810559,26.5209759 25.8959586,28.391219 C22.8637755,25.3627307 21.0567338,21.2848859 20.8492139,17.009944 L29.9294432,17.009944 C30.1970384,17.9277615 30.3433576,18.8967877 30.3433576,19.9 L30.3433576,19.9 Z M20,30.243314 C18.4198938,30.243314 16.9222328,29.8859786 15.5814428,29.2498089 C17.6332876,27.1024198 19.1403749,24.5054069 20,21.6955403 C20.8596251,24.5054069 22.3668531,27.1024198 24.4185572,29.2498089 C23.0777672,29.8859786 21.5801062,30.243314 20,30.243314 L20,30.243314 Z M9.6566424,19.9 C9.6566424,18.8967877 9.80296156,17.9277615 10.0705568,17.009944 L19.1507861,17.009944 C18.9432662,21.2850266 17.1362245,25.3627307 14.1040414,28.391219 C11.4188034,26.5209759 9.6566424,23.4132828 9.6566424,19.9 L9.6566424,19.9 Z M20,7.9 C13.3831381,7.9 8,13.2831039 8,19.9 C8,26.5168961 13.3831381,31.9 20,31.9 C26.6168619,31.9 32,26.5168961 32,19.9 C32,13.2831039 26.6168619,7.9 20,7.9 L20,7.9 Z"
    >
    </path>
  </g>
</svg>
